<svg xmlns="http://www.w3.org/2000/svg" width="420" height="420" viewBox="0 0 420 420">
<defs><linearGradient id="g" x1="0" y1="0" x2="1" y2="1"><stop offset="0" stop-color="#f6f6f6" stop-opacity="0.95"/><stop offset="1" stop-color="#d0d0d0" stop-opacity="0.9"/></linearGradient></defs>
<rect width="420" height="420" fill="none"/>
<circle cx="210" cy="210" r="116" fill="none" stroke="url(#g)" stroke-width="18" opacity="0.86"/>
<path d="M208 85 C158 86 113 125 103 175 C92 228 126 279 181 292 C202 297 216 312 216 340" fill="none" stroke="#ffffff" stroke-width="18" stroke-linecap="round" opacity="0.92"/>
<path d="M228 84 C277 88 317 126 327 174 C337 220 317 266 278 290" fill="none" stroke="#ffffff" stroke-width="10" stroke-linecap="round" opacity="0.4"/>
<path d="M294 268 L344 318 L319 343 L269 294" fill="#fff" opacity="0.88"/>
<rect x="240" y="246" width="34" height="108" rx="12" fill="#fff" opacity="0.9" transform="rotate(-45 257 300)"/>
<text x="210" y="392" text-anchor="middle" fill="#ffffff" font-size="28" font-family="Arial" font-weight="800">WAR</text>
</svg>